<svg version="1.2" xmlns="http://www.w3.org/2000/svg" viewBox="0 0 232 86" width="150" height="56"><style></style><path  d="m88.4 54v-21.9h2.9v21.9zm22.4-9.9v9.9h-2.7v-9.8q0-2.3-0.9-3.5-0.9-1.2-2.7-1.2-2.2 0-3.5 1.4-1.2 1.4-1.2 3.8v9.3h-2.7v-16.4h2.7v2.5q0.9-1.4 2.2-2.2 1.4-0.7 3.1-0.7 2.8 0 4.3 1.8 1.4 1.7 1.4 5.1zm9.6 9.9l-6.2-16.4h2.9l5.1 13.8 5.2-13.8h2.8l-6.1 16.4zm27.5-8.9v1.3h-12.4q0.2 2.8 1.7 4.3 1.5 1.4 4.2 1.4 1.6 0 3-0.3 1.5-0.4 2.9-1.2v2.6q-1.4 0.6-3 0.9-1.5 0.3-3.1 0.3-3.9 0-6.2-2.3-2.3-2.2-2.3-6.1 0-4.1 2.2-6.4 2.2-2.4 5.9-2.4 3.3 0 5.2 2.1 1.9 2.2 1.9 5.8zm-12.3-0.8h9.6q0-2.2-1.2-3.5-1.2-1.3-3.2-1.3-2.3 0-3.6 1.3-1.4 1.2-1.6 3.5zm30.4-0.2v9.9h-2.7v-9.8q0-2.3-0.9-3.5-0.9-1.2-2.7-1.2-2.2 0-3.5 1.4-1.2 1.4-1.2 3.8v9.3h-2.7v-16.4h2.7v2.5q0.9-1.4 2.2-2.2 1.4-0.7 3.1-0.7 2.8 0 4.2 1.8 1.5 1.7 1.5 5.1zm5.3-11.2h2.7v4.7h5.6v2.1h-5.6v8.9q0 2 0.6 2.6 0.5 0.5 2.2 0.5h2.8v2.3h-2.8q-3.1 0-4.3-1.2-1.2-1.1-1.2-4.2v-8.9h-2v-2.1h2zm18.2 6.5q-2.2 0-3.4 1.7-1.3 1.7-1.3 4.7 0 2.9 1.2 4.6 1.3 1.7 3.5 1.7 2.1 0 3.4-1.7 1.3-1.7 1.3-4.6 0-2.9-1.3-4.6-1.3-1.8-3.4-1.8zm0-2.2q3.5 0 5.5 2.2 2 2.3 2 6.4 0 4-2 6.3-2 2.3-5.5 2.3-3.5 0-5.5-2.3-2-2.3-2-6.3 0-4.1 2-6.4 2-2.2 5.5-2.2zm21.5 0.1v2.8q-0.5-0.3-1-0.4-0.5-0.1-1.2-0.1-2.3 0-3.5 1.5-1.2 1.4-1.2 4.2v8.7h-2.7v-16.4h2.7v2.5q0.8-1.5 2.2-2.2 1.4-0.7 3.3-0.7 0.3 0 0.6 0 0.4 0 0.8 0.1zm16.9 0.3l-7.3 17.9q-1.1 2.9-2.2 3.8-1.1 0.9-2.9 0.9h-2.1v-2.3h1.5q1.2 0 1.8-0.5 0.6-0.5 1.3-2.5l0.5-1.2-6.6-16.1h2.8l5.2 12.8 5.1-12.8z"/><path fill-rule="evenodd" d="m42.1 4l40 40.1-40 40-40.1-40zm-24.7 39.8l24.8 24.8 24.8-24.8-24.8-24.8z"/></svg>